<svg id="Layer_1" enable-background="new 0 0 512.003 512.003" height="512" viewBox="0 0 512.003 512.003" width="512" xmlns="http://www.w3.org/2000/svg"><g><g clip-rule="evenodd" fill-rule="evenodd"><path d="m181.126 306.879c0-12.375-10.125-22.5-22.5-22.5h-15v-15c0-12.375-10.125-22.5-22.5-22.5s-22.5 10.125-22.5 22.5v15h-15c-12.375 0-22.5 10.125-22.5 22.5s10.125 22.5 22.5 22.5h15v15c0 12.375 10.125 22.5 22.5 22.5s22.5-10.125 22.5-22.5v-15h15c12.375 0 22.5-10.124 22.5-22.5z" fill="#8481e2"/><path d="m276.399 306.879-10.826 10.826c-8.931 8.931-8.931 23.545 0 32.476s23.545 8.931 32.476 0l10.826-10.825 10.826 10.825c8.931 8.931 23.545 8.931 32.476-.001 8.931-8.931 8.931-23.545 0-32.476l-10.826-10.826 10.826-10.826c8.931-8.931 8.931-23.545-.001-32.476-8.931-8.931-23.545-8.931-32.476 0l-10.826 10.826-10.826-10.826c-8.931-8.931-23.545-8.931-32.476 0s-8.931 23.545 0 32.476z" fill="#8481e2"/><path d="m265.573 317.705 10.826-10.826-10.826-10.826c-8.931-8.931-8.931-23.545 0-32.476 8.931-8.932 23.545-8.932 32.476 0l10.826 10.826 10.826-10.826c8.931-8.931 23.545-8.931 32.476 0s8.931 23.545.001 32.476l-10.826 10.826 10.826 10.826c8.931 8.931 8.931 23.545 0 32.476s-23.546 8.931-32.476.001l-10.826-10.825-10.826 10.825c-8.931 8.931-23.545 8.931-32.476 0-8.932-8.932-8.932-23.546-.001-32.477zm-18.173-173.427h-74.798c-89.431 0-162.601 73.17-162.601 162.601 0 65.376 39.105 122.055 95.077 147.82-7.993 12.144-15.36 19.895-16.898 21.191-9.871 8.317-5.295 27.808 15.089 25.993 11.381-1.013 44.575-9.754 74.916-32.402h69.215c89.43 0 162.6-73.171 162.6-162.602 0-89.43-73.17-162.601-162.6-162.601zm-103.774 200.101c0 12.375-10.125 22.5-22.5 22.5s-22.5-10.125-22.5-22.5v-15h-15c-12.375 0-22.5-10.125-22.5-22.5s10.125-22.5 22.5-22.5h15v-15c0-12.375 10.125-22.5 22.5-22.5s22.5 10.125 22.5 22.5v15h15c12.375 0 22.5 10.125 22.5 22.5 0 12.376-10.125 22.5-22.5 22.5h-15z" fill="#fff"/><path d="m247.4 144.278c60.901 0 114.261 33.932 142.109 83.824 20.275 15.059 42.389 20.878 49.989 21.555 13.661 1.216 16.727-11.845 10.112-17.42-1.031-.869-5.968-6.063-11.325-14.202 37.51-17.267 63.717-55.251 63.717-99.065 0-59.934-49.036-108.97-108.97-108.97h-50.127c-59.934 0-108.97 49.036-108.97 108.971 0 8.705 1.042 17.178 2.994 25.307z" fill="#8481e2"/></g><g><path d="m512.002 118.971c0-65.601-53.37-118.971-118.97-118.971h-50.127c-38.758 0-75.244 19.118-97.6 51.141-3.161 4.529-2.053 10.763 2.476 13.924 4.528 3.161 10.762 2.052 13.924-2.475 18.617-26.669 48.972-42.59 81.2-42.59h50.127c54.573 0 98.971 44.398 98.971 98.971 0 38.471-22.727 73.79-57.899 89.98-2.647 1.219-4.631 3.531-5.433 6.333s-.341 5.814 1.261 8.249c5.28 8.022 10.468 13.854 12.841 16.007-.393.131-1.161.266-2.389.155-4.281-.381-23.85-4.619-43.16-18.352-7.555-13.124-16.898-25.353-27.917-36.372-32.69-32.689-75.984-50.692-121.908-50.692h-74.798c-45.924 0-89.218 18.003-121.908 50.692-32.69 32.69-50.693 75.984-50.693 121.908 0 63.108 35.029 121.34 90.186 151.518-4.458 5.804-7.807 9.27-8.45 9.847-8.006 6.746-10.748 18.304-6.667 28.105 3.247 7.799 11.604 15.654 25.577 15.654 1.132 0 2.303-.052 3.509-.159 14.477-1.288 47.771-11.207 77.295-32.363h65.95c45.924 0 89.218-18.003 121.908-50.692 32.69-32.691 50.692-75.986 50.692-121.91 0-19.028-3.1-37.601-9.045-55.158 11.464 4.868 21.624 7.359 27.655 7.896.923.082 1.816.121 2.685.121 10.946 0 17.55-6.288 20.146-12.522 3.317-7.968 1.191-17.008-5.285-22.539-.394-.373-1.446-1.477-2.899-3.209 36.041-21.29 58.745-60.313 58.745-102.497zm-264.603 340.509h-69.215c-2.156 0-4.254.696-5.982 1.986-27.859 20.796-59.07 29.499-69.821 30.455-4.588.414-7.814-.778-8.848-3.26-.644-1.548-.477-3.805 1.09-5.124 2.524-2.127 10.442-10.63 18.808-23.342 1.602-2.434 2.062-5.446 1.261-8.248s-2.786-5.114-5.433-6.333c-54.222-24.958-89.259-79.416-89.259-138.735 0-84.145 68.457-152.601 152.601-152.601h74.798c84.145 0 152.601 68.456 152.601 152.601s-68.456 152.601-152.601 152.601z"/><path d="m235.916 108.296c5.523 0 10-4.478 10-10s-4.477-10-10-10h-.007c-5.523 0-9.996 4.478-9.996 10s4.48 10 10.003 10z"/><path d="m158.626 274.379h-5v-5c0-17.921-14.58-32.5-32.5-32.5s-32.5 14.579-32.5 32.5v5h-5c-17.92 0-32.5 14.58-32.5 32.501 0 17.92 14.579 32.499 32.5 32.499h5v5.001c0 17.92 14.58 32.499 32.5 32.499s32.5-14.579 32.5-32.499v-5.001h5c17.92 0 32.5-14.579 32.5-32.5s-14.58-32.5-32.5-32.5zm0 45h-15c-5.523 0-10 4.478-10 10v15.001c0 6.892-5.608 12.499-12.5 12.499s-12.5-5.607-12.5-12.499v-15.001c0-5.522-4.477-10-10-10h-15c-6.892 0-12.5-5.607-12.5-12.5s5.607-12.5 12.5-12.5h15c5.523 0 10-4.478 10-10v-15c0-6.893 5.607-12.5 12.5-12.5 6.893 0 12.5 5.607 12.5 12.5v15c0 5.522 4.477 10 10 10h15c6.892 0 12.5 5.608 12.5 12.501-.001 6.891-5.608 12.499-12.5 12.499z"/><path d="m312.629 256.506-3.754 3.755-3.754-3.755c-6.208-6.208-14.486-9.627-23.31-9.627-8.823.001-17.101 3.42-23.309 9.628s-9.627 14.486-9.627 23.309 3.419 17.102 9.627 23.31l3.754 3.754-3.754 3.755c-6.208 6.208-9.627 14.486-9.627 23.31s3.419 17.101 9.627 23.308c6.208 6.209 14.486 9.629 23.309 9.629s17.101-3.42 23.309-9.628l3.755-3.755 3.754 3.754c6.208 6.209 14.486 9.629 23.309 9.629s17.102-3.42 23.31-9.628c12.853-12.853 12.853-33.766 0-46.618l-3.755-3.755 3.755-3.754c12.852-12.853 12.852-33.766 0-46.619-12.853-12.854-33.766-12.854-46.619-.002zm32.477 32.476-10.826 10.825c-1.875 1.875-2.929 4.419-2.929 7.071s1.053 5.195 2.929 7.071l10.826 10.826c2.431 2.431 3.769 5.686 3.769 9.166 0 3.481-1.338 6.736-3.77 9.168-2.431 2.431-5.686 3.769-9.167 3.769s-6.736-1.338-9.167-3.77l-10.826-10.825c-1.953-1.952-4.512-2.929-7.071-2.929s-5.118.977-7.071 2.929l-10.826 10.826c-2.431 2.431-5.686 3.769-9.167 3.769s-6.736-1.338-9.167-3.77c-2.431-2.431-3.769-5.686-3.769-9.166 0-3.481 1.338-6.736 3.77-9.167l10.826-10.826c1.875-1.876 2.929-4.419 2.929-7.071s-1.054-5.196-2.929-7.071l-10.826-10.825c-2.431-2.431-3.769-5.686-3.769-9.167 0-3.48 1.338-6.735 3.769-9.166l.001-.001c2.43-2.431 5.686-3.77 9.167-3.77 3.48 0 6.736 1.339 9.167 3.77l10.826 10.826c1.875 1.875 4.419 2.929 7.071 2.929s5.196-1.054 7.071-2.929l10.826-10.826c2.43-2.431 5.686-3.77 9.167-3.77 3.48.001 6.736 1.339 9.167 3.771 5.053 5.055 5.053 13.279-.001 18.333z"/></g></g></svg>